<svg width="1200" height="417" viewBox="0 0 1200 417" fill="none" xmlns="http://www.w3.org/2000/svg">
<path d="M0 0H1200V417H0V0Z" fill="url(#paint0_linear_4_180)"/>
<path d="M691.5 199C691.5 245.944 653.444 284 606.5 284C559.556 284 521.5 245.944 521.5 199C521.5 152.056 559.556 114 606.5 114C653.444 114 691.5 152.056 691.5 199Z" fill="white"/>
<path d="M427.774 148C322.978 228.833 112.011 391.8 106.514 397L708.661 335.5L556.621 226.5L527.416 211.5L520.544 210L499.928 185H492.198L427.774 148Z" fill="#E4E9EC"/>
<path d="M16.3207 263.5C14.9463 264.7 4.86757 285.667 0 296V416H640.802L505.941 228.5L491.339 238.5L483.608 234.5L475.877 243L445.812 199L425.197 217L414.889 206.5C401.432 217.667 374.345 240.2 373.658 241C372.971 241.8 361.346 226.333 355.619 218.5L310.952 234.5C262.849 238.9 213.601 225.667 194.989 218.5L91.0523 250.5L59.2699 238L41.2312 243.5C33.5004 249.667 17.6951 262.3 16.3207 263.5Z" fill="#A3C2D6"/>
<path d="M1166.5 354.5C1166.5 357 1193.99 415 1193.99 417H28.3465L111.668 288.5L118.54 274.5C119.971 277.167 122.835 282.6 122.835 283C122.835 283.4 129.134 275.167 132.283 271L137.437 278.5C142.305 274.667 152.212 266.9 152.899 266.5C153.586 266.1 161.203 271.667 164.925 274.5L169.22 280L172.656 279L176.951 274.5L178.669 278L180.387 276L185.54 271L190.694 276.5C190.981 277.833 191.382 280.7 190.694 281.5C190.007 282.3 192.699 281.167 194.13 280.5L196.707 278.5L199.284 280L202.72 279V276.5C202.72 276.1 205.583 273.667 207.015 272.5L211.31 276C211.596 277.333 212.341 280.1 213.028 280.5C213.715 280.9 221.331 264.667 225.054 256.5L231.067 269L233.643 265.5L236.22 269.5L245.669 273V270L248.246 264.5L252.541 268.5H255.118L264.567 252L279.17 271L282.606 276.5L292.054 266L298.067 271.5L303.221 259L307.516 250.5L310.952 258.5L318.683 272L322.978 259L329.85 272L341.016 256L351.324 270L359.914 266L377.953 274L379.671 265.5L390.838 277.5L398.568 272L405.44 274L414.03 260L421.761 265L442.377 255L499.928 291L561.775 309.5L814.316 168.5C828.747 182.5 858.697 190.667 871.868 193L966.356 265L974.087 260L986.113 265L1006.73 252.5L1116.68 316C1133.29 328 1166.5 352.5 1166.5 354.5Z" fill="#6F90D3"/>
<path d="M606.853 193L274.016 417H969.792L815.844 307.5L794.343 301.5L773.702 297L766.822 293.5L748.761 275.5L606.853 193Z" fill="#6B7DCC"/>
<path d="M340.157 369L0 250.5V417H1200V265L986.972 340L965.497 309L947.459 345L931.138 327.5L920.83 356.5L912.24 347C910.236 351.5 905.884 360.8 904.51 362C903.135 363.2 878.74 335.833 866.714 322L823.765 379L803.15 392L792.842 393L774.803 386L765.354 381.5L753.329 358.5C749.606 365 742.162 378.2 742.162 379C742.162 379.8 737.581 378 735.29 377L709.52 348.5C707.802 353.667 704.366 364.2 704.366 365C704.366 365.8 688.905 341.333 681.174 329L655.404 371L636.507 347.5L618.468 373L597.853 348.5L561.775 383.5L530.852 350L496.492 387.5L432.069 383.5L411.453 386.5L393.414 400L340.157 369Z" fill="#628EC0"/>
<path d="M386.543 198L351.324 207.5V207L427.774 148L492.198 185H499.928L514.531 202.5V209.5L490.48 202V192.5L436.364 160.5V188.5L406.299 200.5L386.543 198Z" fill="white" fill-opacity="0.15"/>
<path d="M537.724 270.5L459.556 292.5L461.274 291L603.865 195L608.16 198V227.5L537.724 270.5Z" fill="white" fill-opacity="0.15"/>
<path d="M712.956 254.5L687.187 239.5L814.316 168.5L814.316 193C814.316 193.4 746.743 234.167 712.956 254.5Z" fill="white" fill-opacity="0.15"/>
<path d="M814.316 224.5L742.162 270.5L741.303 271L749.034 275.5L763.636 290.5L814.316 224.5Z" fill="white" fill-opacity="0.15"/>
<path d="M854.689 297.5L828.06 316L856.407 336.5L866.714 322L902.792 361L904.51 362L912.24 347L920.83 356.5L931.138 327.5C936.292 332.833 946.772 343.8 947.459 345C948.146 346.2 951.181 339.167 952.613 335.5L943.164 316L933.715 323L896.779 301.5L873.586 310L854.689 297.5Z" fill="white" fill-opacity="0.15"/>
<path d="M985.254 275L966.356 265L974.087 260L986.113 265L1006.73 252.5L985.254 275Z" fill="white" fill-opacity="0.15"/>
<defs>
<linearGradient id="paint0_linear_4_180" x1="600" y1="0" x2="600" y2="417" gradientUnits="userSpaceOnUse">
<stop stop-color="#B5C9DF"/>
<stop offset="1" stop-color="#E4ECF4"/>
</linearGradient>
</defs>
</svg>
