<svg width="40" height="30" viewBox="0 0 40 30" fill="none" xmlns="http://www.w3.org/2000/svg">
<path d="M40 13.7475C40.0002 14.9435 39.6574 16.1144 39.0123 17.1214C38.3672 18.1283 37.4469 18.929 36.3605 19.4284C35.9251 18.6641 35.3774 17.9696 34.7357 17.3681C35.6957 17.1065 36.5124 16.4741 37.0063 15.6102C37.5001 14.7462 37.6307 13.7214 37.3691 12.7611C37.1076 11.8009 36.4754 10.9839 35.6117 10.4899C34.748 9.99594 33.7235 9.86539 32.7635 10.127C32.5908 10.1738 32.41 10.183 32.2334 10.1539C32.0567 10.1248 31.8884 10.0581 31.7398 9.95827C31.5912 9.85847 31.4658 9.72789 31.372 9.57539C31.2782 9.42289 31.2183 9.25202 31.1962 9.07434C31.0195 7.64244 30.4336 6.29191 29.5089 5.18464C28.5843 4.07737 27.3599 3.26035 25.9828 2.8315C24.6056 2.40266 23.134 2.3802 21.7444 2.76681C20.3548 3.15342 19.1061 3.9327 18.1481 5.01123C17.08 4.9622 16.0098 5.03602 14.9586 5.23126C15.9171 3.46552 17.3849 2.02935 19.1709 1.10969C20.9568 0.190026 22.9782 -0.17052 24.9718 0.074982C26.9655 0.320484 28.8391 1.16066 30.3487 2.48615C31.8584 3.81163 32.9341 5.56103 33.4359 7.5066C34.2818 7.4639 35.1276 7.59366 35.9219 7.88799C36.7161 8.18233 37.4422 8.6351 38.0561 9.21879C38.6701 9.80249 39.1589 10.5049 39.4931 11.2834C39.8273 12.062 39.9997 12.9003 40 13.7475Z" fill="#254154"/>
<path d="M17.5032 7.4966C20.2704 7.49607 22.9407 8.5159 25.0035 10.3611C27.0662 12.2062 28.3766 14.7472 28.6841 17.4981H28.7516C30.409 17.4981 31.9984 18.1567 33.1704 19.329C34.3423 20.5012 35.0007 22.0912 35.0007 23.7491C35.0007 25.4069 34.3423 26.9969 33.1704 28.1691C31.9984 29.3414 30.409 30 28.7516 30H7.50461C5.56828 30.0015 3.70644 29.2536 2.30882 27.9131C0.911201 26.5725 0.0861508 24.7432 0.0063733 22.8079C-0.0734042 20.8727 0.598276 18.9816 1.88081 17.5305C3.16335 16.0794 4.95732 15.1807 6.88719 15.0227C7.65965 12.823 9.09588 10.9175 10.9975 9.5693C12.8992 8.22115 15.1724 7.4969 17.5032 7.4966ZM26.2519 18.7483C26.2534 16.6168 25.4771 14.558 24.0688 12.9584C22.6605 11.3587 20.7169 10.3283 18.6029 10.0603C16.4889 9.79239 14.3498 10.3054 12.5872 11.5032C10.8245 12.7009 9.55942 14.5009 9.02939 16.5655C8.95767 16.8449 8.79156 17.0909 8.55921 17.2618C8.32687 17.4327 8.04259 17.5179 7.75457 17.5031C7.09056 17.4736 6.42734 17.5769 5.80371 17.8068C5.18007 18.0368 4.60853 18.3888 4.12253 18.8424C3.63653 19.2959 3.24582 19.8418 2.97325 20.4482C2.70068 21.0546 2.55173 21.7093 2.53511 22.3739C2.51849 23.0386 2.63454 23.6998 2.87646 24.3191C3.11838 24.9383 3.48131 25.5031 3.94404 25.9804C4.40677 26.4577 4.96 26.8379 5.57136 27.0987C6.18273 27.3596 6.83996 27.4959 7.50461 27.4996H28.7516C29.2832 27.4984 29.8085 27.3841 30.2926 27.1643C30.7768 26.9445 31.2086 26.6242 31.5595 26.2247C31.9104 25.8252 32.1724 25.3557 32.3281 24.8472C32.4837 24.3387 32.5295 23.8029 32.4624 23.2753C32.3952 22.7478 32.2167 22.2406 31.9386 21.7873C31.6605 21.3341 31.2893 20.9452 30.8494 20.6464C30.4096 20.3476 29.9113 20.1458 29.3876 20.0544C28.8639 19.9629 28.3267 19.9839 27.8117 20.116C27.6256 20.1637 27.431 20.1678 27.243 20.128C27.055 20.0883 26.8787 20.0057 26.7278 19.8866C26.5769 19.7676 26.4555 19.6154 26.3729 19.4419C26.2904 19.2683 26.249 19.078 26.2519 18.8858V18.7483Z" fill="#254154"/>
</svg>
