<svg width="38" height="28" viewBox="0 0 38 28" fill="none" xmlns="http://www.w3.org/2000/svg">
<path d="M36.0309 14.875C34.7819 13.3848 33.011 12.4438 31.0909 12.25C31.0909 8.8375 29.9164 5.95 27.5673 3.57C25.2182 1.19 22.3682 0 19 0C16.2709 0 13.8182 0.8225 11.6591 2.5025C9.5 4.1825 8.06636 6.335 7.34091 9.0125C5.18182 9.5025 3.38545 10.64 2.02091 12.425C0.656364 14.21 0 16.24 0 18.515C0 21.1575 0.932727 23.415 2.78091 25.2525C4.64636 27.125 6.90909 28 9.5 28H30.2273C32.3864 28 34.2173 27.23 35.7373 25.7075C37.24 24.1675 38 22.3125 38 20.125C38 18.1125 37.3436 16.3625 36.0309 14.875ZM33.2845 23.2225C32.4555 24.08 31.4364 24.5 30.2273 24.5H9.5C7.82455 24.5 6.40818 23.905 5.23364 22.75C4.04182 21.5075 3.45455 20.0725 3.45455 18.375C3.45455 16.6775 4.04182 15.2425 5.23364 14.0525C6.40818 12.845 7.82455 12.25 9.5 12.25H10.3636C10.3636 9.835 11.2273 7.77 12.8855 6.055C14.5782 4.375 16.6164 3.5 19 3.5C21.3836 3.5 23.4218 4.375 25.1145 6.055C26.7727 7.77 27.6364 9.835 27.6364 12.25V15.75H30.2273C31.4364 15.75 32.4555 16.17 33.2845 17.0275C34.1136 17.885 34.5455 18.9 34.5455 20.125C34.5455 21.35 34.1309 22.3825 33.2845 23.2225ZM12.1427 11.2875C12.1427 9.9225 13.2482 8.8025 14.5955 8.8025C15.9427 8.8025 17.0482 9.9225 17.0482 11.2875C17.0482 12.6525 15.9427 13.7725 14.5955 13.7725C13.2482 13.7725 12.1427 12.6525 12.1427 11.2875ZM25.8573 20.2125C25.8573 21.5775 24.7518 22.6975 23.4045 22.6975C22.0573 22.6975 20.9518 21.5775 20.9518 20.2125C20.9518 18.8475 22.0573 17.7275 23.4045 17.7275C24.7518 17.7275 25.8573 18.8475 25.8573 20.2125ZM23.8364 8.75L25.9091 10.85L14.1636 22.75L12.0909 20.65L23.8364 8.75Z" fill="#254154"/>
</svg>
