<svg width="15" height="15" viewBox="0 0 15 15" fill="none" xmlns="http://www.w3.org/2000/svg">
<path fill-rule="evenodd" clip-rule="evenodd" d="M6.62446 1.43765e-08C5.6079 8.66187e-05 4.60611 0.243273 3.70265 0.70927C2.79919 1.17527 2.02028 1.85056 1.43088 2.67882C0.841492 3.50707 0.458715 4.46426 0.314489 5.47053C0.170263 6.47681 0.26877 7.50298 0.601791 8.46344C0.934813 9.4239 1.49269 10.2908 2.22889 10.9918C2.96508 11.6928 3.85824 12.2076 4.83384 12.4932C5.80945 12.7788 6.83921 12.827 7.83722 12.6337C8.83523 12.4404 9.77254 12.0112 10.571 11.382L13.31 14.121C13.4514 14.2576 13.6409 14.3332 13.8375 14.3315C14.0342 14.3298 14.2223 14.2509 14.3613 14.1119C14.5004 13.9728 14.5793 13.7847 14.581 13.5881C14.5827 13.3914 14.5071 13.202 14.3705 13.0605L11.6315 10.3215C12.3725 9.38146 12.8338 8.2518 12.9628 7.06179C13.0917 5.87179 12.8831 4.66952 12.3606 3.59257C11.8382 2.51562 11.0231 1.60752 10.0087 0.972173C8.99425 0.33683 7.82143 -8.03575e-05 6.62446 1.43765e-08ZM1.74946 6.375C1.74946 5.08207 2.26307 3.84209 3.17731 2.92785C4.09155 2.01361 5.33153 1.5 6.62446 1.5C7.91739 1.5 9.15736 2.01361 10.0716 2.92785C10.9858 3.84209 11.4995 5.08207 11.4995 6.375C11.4995 7.66793 10.9858 8.90791 10.0716 9.82215C9.15736 10.7364 7.91739 11.25 6.62446 11.25C5.33153 11.25 4.09155 10.7364 3.17731 9.82215C2.26307 8.90791 1.74946 7.66793 1.74946 6.375Z" fill="#254154"/>
</svg>
