<svg width="43" height="43" viewBox="0 0 43 43" fill="none" xmlns="http://www.w3.org/2000/svg">
<path d="M13.7 39.75C13.0096 39.75 12.45 40.3096 12.45 41C12.45 41.6904 13.0096 42.25 13.7 42.25V39.75ZM29.3 42.25C29.9904 42.25 30.55 41.6904 30.55 41C30.55 40.3096 29.9904 39.75 29.3 39.75V42.25ZM7.85 33.9C7.15964 33.9 6.6 34.4596 6.6 35.15C6.6 35.8404 7.15964 36.4 7.85 36.4V33.9ZM35.15 36.4C35.8404 36.4 36.4 35.8404 36.4 35.15C36.4 34.4596 35.8404 33.9 35.15 33.9V36.4ZM2 28.05C1.30964 28.05 0.75 28.6096 0.75 29.3C0.75 29.9904 1.30964 30.55 2 30.55V28.05ZM41 30.55C41.6904 30.55 42.25 29.9904 42.25 29.3C42.25 28.6096 41.6904 28.05 41 28.05V30.55ZM22.75 9.8C22.75 9.10964 22.1904 8.55 21.5 8.55C20.8096 8.55 20.25 9.10964 20.25 9.8H22.75ZM21.5 23.45L20.6161 24.3339C21.1043 24.822 21.8957 24.822 22.3839 24.3339L21.5 23.45ZM26.2839 20.4339C26.772 19.9457 26.772 19.1543 26.2839 18.6661C25.7957 18.178 25.0043 18.178 24.5161 18.6661L26.2839 20.4339ZM18.4839 18.6661C17.9957 18.178 17.2043 18.178 16.7161 18.6661C16.228 19.1543 16.228 19.9457 16.7161 20.4339L18.4839 18.6661ZM22.75 2C22.75 1.30964 22.1904 0.75 21.5 0.75C20.8096 0.75 20.25 1.30964 20.25 2H22.75ZM20.25 3.95C20.25 4.64036 20.8096 5.2 21.5 5.2C22.1904 5.2 22.75 4.64036 22.75 3.95H20.25ZM41 22.75C41.6904 22.75 42.25 22.1904 42.25 21.5C42.25 20.8096 41.6904 20.25 41 20.25V22.75ZM39.05 20.25C38.3596 20.25 37.8 20.8096 37.8 21.5C37.8 22.1904 38.3596 22.75 39.05 22.75V20.25ZM3.95 22.75C4.64036 22.75 5.2 22.1904 5.2 21.5C5.2 20.8096 4.64036 20.25 3.95 20.25V22.75ZM2 20.25C1.30964 20.25 0.75 20.8096 0.75 21.5C0.75 22.1904 1.30964 22.75 2 22.75V20.25ZM36.1715 8.59626C36.659 8.10748 36.658 7.31602 36.1693 6.82849C35.6805 6.34096 34.889 6.34197 34.4015 6.83074L36.1715 8.59626ZM33.6371 7.59709C33.1496 8.08587 33.1506 8.87733 33.6393 9.36486C34.1281 9.85239 34.9196 9.85138 35.4071 9.36261L33.6371 7.59709ZM7.59402 9.36178C8.08217 9.84994 8.87363 9.84994 9.36178 9.36178C9.84994 8.87363 9.84994 8.08217 9.36178 7.59402L7.59402 9.36178ZM8.59543 6.82767C8.10728 6.33951 7.31582 6.33951 6.82767 6.82767C6.33951 7.31582 6.33951 8.10728 6.82767 8.59543L8.59543 6.82767ZM17.1829 9.28658C16.5321 9.51693 16.1913 10.2312 16.4216 10.882C16.652 11.5328 17.3663 11.8737 18.0171 11.6433L17.1829 9.28658ZM30.275 29.2376V30.4876H30.8389L31.2121 30.0649L30.275 29.2376ZM12.725 29.2376L11.7887 30.0658L12.1618 30.4876H12.725V29.2376ZM9.8 21.5L11.05 21.5017V21.5H9.8ZM11.6437 18.0161C11.8735 17.3651 11.5321 16.6511 10.8811 16.4213C10.2301 16.1915 9.51607 16.5329 9.28625 17.1839L11.6437 18.0161ZM13.7 42.25H29.3V39.75H13.7V42.25ZM7.85 36.4H35.15V33.9H7.85V36.4ZM2 30.55H41V28.05H2V30.55ZM20.25 9.8V23.45H22.75V9.8H20.25ZM22.3839 24.3339L26.2839 20.4339L24.5161 18.6661L20.6161 22.5661L22.3839 24.3339ZM22.3839 22.5661L18.4839 18.6661L16.7161 20.4339L20.6161 24.3339L22.3839 22.5661ZM20.25 2V3.95H22.75V2H20.25ZM41 20.25H39.05V22.75H41V20.25ZM3.95 20.25H2V22.75H3.95V20.25ZM34.4015 6.83074L33.6371 7.59709L35.4071 9.36261L36.1715 8.59626L34.4015 6.83074ZM9.36178 7.59402L8.59543 6.82767L6.82767 8.59543L7.59402 9.36178L9.36178 7.59402ZM18.0171 11.6433C20.1993 10.8709 22.5763 10.845 24.7748 11.5696L25.5574 9.19525C22.8328 8.29729 19.8872 8.32941 17.1829 9.28658L18.0171 11.6433ZM24.7748 11.5696C26.9734 12.2942 28.8692 13.7283 30.1645 15.6469L32.2365 14.2479C30.6312 11.8704 28.2819 10.0932 25.5574 9.19525L24.7748 11.5696ZM30.1645 15.6469C31.4599 17.5654 32.0816 19.8598 31.932 22.1698L34.4267 22.3314C34.6121 19.4687 33.8417 16.6255 32.2365 14.2479L30.1645 15.6469ZM31.932 22.1698C31.7823 24.4799 30.8699 26.6749 29.3379 28.4103L31.2121 30.0649C33.1106 27.9143 34.2413 25.1941 34.4267 22.3314L31.932 22.1698ZM30.275 27.9876H12.725V30.4876H30.275V27.9876ZM13.6613 28.4094C11.9756 26.5036 11.0466 24.0461 11.05 21.5017L8.55 21.4983C8.54574 24.6541 9.69793 27.702 11.7887 30.0658L13.6613 28.4094ZM11.05 21.5C11.05 20.2766 11.2593 19.1049 11.6437 18.0161L9.28625 17.1839C8.80873 18.5365 8.55 19.9895 8.55 21.5H11.05Z" fill="#254154"/>
</svg>
