<svg width="32" height="32" viewBox="0 0 32 32" fill="none" xmlns="http://www.w3.org/2000/svg">
<path d="M26 0C22.6937 0 20 2.69375 20 6C20 9.30625 22.6937 12 26 12C29.3063 12 32 9.30625 32 6C32 2.69375 29.3063 0 26 0ZM26 8C24.8937 8 24 7.10625 24 6C24 4.89375 24.8937 4 26 4C27.1063 4 28 4.89375 28 6C28 7.10625 27.1063 8 26 8ZM16 7C16 3.13125 12.8688 0 9 0C5.13125 0 2 3.13125 2 7V17.4062C0.76875 18.95 0 20.875 0 23C0 27.9688 4.03125 32 9 32C13.9688 32 18 27.9688 18 23C18 20.875 17.2313 18.9438 16 17.4062V7ZM9 28C6.24375 28 4 25.7562 4 23C4 21.4062 4.7625 19.9438 6 19.0125V7C6 5.34375 7.34375 4 9 4C10.6562 4 12 5.34375 12 7V19.0125C13.2375 19.9375 14 21.4062 14 23C14 25.7562 11.7562 28 9 28ZM10 20.1812V19C10 18.45 9.55 18 9 18C8.45 18 8 18.45 8 19V20.1812C6.8375 20.5937 6 21.6938 6 23C6 24.6562 7.34375 26 9 26C10.6562 26 12 24.6562 12 23C12 21.6938 11.1625 20.5937 10 20.1812Z" fill="#254154"/>
</svg>
