<svg width="31" height="28" viewBox="0 0 31 28" fill="none" xmlns="http://www.w3.org/2000/svg">
<path d="M15.5 0L19.2045 5.32C18.0575 4.9 16.802 4.66667 15.5 4.66667C14.198 4.66667 12.9425 4.9 11.7955 5.32L15.5 0ZM2.077 7.77778L8.525 7.23333C7.56299 8.04881 6.74545 9.02181 6.107 10.1111C5.425 11.2622 5.0375 12.4444 4.8205 13.6733L2.077 7.77778ZM28.9075 7.77778L26.164 13.6733C25.725 11.1545 24.4196 8.87004 22.475 7.21778M18.6 20.2222C18.6 19.8097 18.4367 19.414 18.146 19.1223C17.8553 18.8306 17.4611 18.6667 17.05 18.6667H1.55C1.13891 18.6667 0.744666 18.8306 0.453984 19.1223C0.163303 19.414 0 19.8097 0 20.2222C0 20.6348 0.163303 21.0304 0.453984 21.3222C0.744666 21.6139 1.13891 21.7778 1.55 21.7778H17.05C17.4611 21.7778 17.8553 21.6139 18.146 21.3222C18.4367 21.0304 18.6 20.6348 18.6 20.2222ZM31 20.2222C31 19.8097 30.8367 19.414 30.546 19.1223C30.2553 18.8306 29.8611 18.6667 29.45 18.6667H23.25C22.8389 18.6667 22.4447 18.8306 22.154 19.1223C21.8633 19.414 21.7 19.8097 21.7 20.2222C21.7 20.6348 21.8633 21.0304 22.154 21.3222C22.4447 21.6139 22.8389 21.7778 23.25 21.7778H29.45C29.8611 21.7778 30.2553 21.6139 30.546 21.3222C30.8367 21.0304 31 20.6348 31 20.2222ZM12.4 26.4444C12.4 26.857 12.5633 27.2527 12.854 27.5444C13.1447 27.8361 13.5389 28 13.95 28H27.9C28.3111 28 28.7053 27.8361 28.996 27.5444C29.2867 27.2527 29.45 26.857 29.45 26.4444C29.45 26.0319 29.2867 25.6362 28.996 25.3445C28.7053 25.0528 28.3111 24.8889 27.9 24.8889H13.95C13.5389 24.8889 13.1447 25.0528 12.854 25.3445C12.5633 25.6362 12.4 26.0319 12.4 26.4444ZM1.55 26.4444C1.55 26.857 1.7133 27.2527 2.00398 27.5444C2.29467 27.8361 2.68891 28 3.1 28H7.75C8.16109 28 8.55533 27.8361 8.84601 27.5444C9.1367 27.2527 9.3 26.857 9.3 26.4444C9.3 26.0319 9.1367 25.6362 8.84601 25.3445C8.55533 25.0528 8.16109 24.8889 7.75 24.8889H3.1C2.68891 24.8889 2.29467 25.0528 2.00398 25.3445C1.7133 25.6362 1.55 26.0319 1.55 26.4444ZM15.5 10.8889C16.7333 10.8889 17.916 11.3806 18.788 12.2557C19.6601 13.1309 20.15 14.3179 20.15 15.5556H23.25C23.25 13.4928 22.4335 11.5145 20.9801 10.0558C19.5267 8.59722 17.5554 7.77778 15.5 7.77778C13.4446 7.77778 11.4733 8.59722 10.0199 10.0558C8.56652 11.5145 7.75 13.4928 7.75 15.5556H10.85C10.85 14.3179 11.3399 13.1309 12.212 12.2557C13.084 11.3806 14.2667 10.8889 15.5 10.8889Z" fill="#254154"/>
</svg>
