<svg width="30" height="30" viewBox="0 0 30 30" fill="none" xmlns="http://www.w3.org/2000/svg">
<path fill-rule="evenodd" clip-rule="evenodd" d="M12.7503 3C12.2318 2.99982 11.7292 3.17872 11.3274 3.50643C10.9256 3.83414 10.6493 4.29056 10.5453 4.7985C10.506 4.99154 10.429 5.17496 10.3188 5.33827C10.2087 5.50158 10.0674 5.64158 9.9031 5.7503C9.7388 5.85901 9.5547 5.9343 9.36131 5.97187C9.16792 6.00944 8.96902 6.00855 8.77597 5.96925C8.58292 5.92995 8.39951 5.85302 8.23619 5.74284C8.07288 5.63265 7.93287 5.49139 7.82415 5.3271C7.71543 5.16281 7.64014 4.97871 7.60257 4.78532C7.565 4.59194 7.56589 4.39304 7.60519 4.2C7.80386 3.22674 8.27458 2.32981 8.96267 1.61338C9.65075 0.896954 10.528 0.390433 11.4925 0.152645C12.4569 -0.0851433 13.4691 -0.0444392 14.4113 0.27003C15.3536 0.584498 16.1873 1.15983 16.8156 1.92919C17.444 2.69856 17.8411 3.63039 17.961 4.61647C18.0809 5.60254 17.9185 6.60239 17.4928 7.49988C17.0671 8.39737 16.3956 9.15568 15.5561 9.68674C14.7166 10.2178 13.7437 10.4998 12.7503 10.5H4.50011C4.10228 10.5 3.72074 10.342 3.43943 10.0607C3.15812 9.77936 3.00008 9.39782 3.00008 9C3.00008 8.60218 3.15812 8.22064 3.43943 7.93934C3.72074 7.65804 4.10228 7.5 4.50011 7.5H12.7503C13.3471 7.5 13.9194 7.26295 14.3414 6.84099C14.7633 6.41903 15.0004 5.84674 15.0004 5.25C15.0004 4.65326 14.7633 4.08097 14.3414 3.65901C13.9194 3.23705 13.3471 3 12.7503 3ZM24.7506 9C24.2321 8.99982 23.7295 9.17872 23.3277 9.50643C22.9259 9.83414 22.6496 10.2906 22.5456 10.7985C22.5064 10.9915 22.4295 11.175 22.3194 11.3383C22.2093 11.5017 22.0682 11.6417 21.9039 11.7505C21.7397 11.8593 21.5557 11.9347 21.3623 11.9723C21.169 12.01 20.9701 12.0092 20.777 11.97C20.584 11.9308 20.4005 11.854 20.2372 11.7439C20.0738 11.6338 19.9338 11.4926 19.825 11.3284C19.7162 11.1642 19.6408 10.9801 19.6032 10.7868C19.5655 10.5934 19.5663 10.3945 19.6055 10.2015C19.8039 9.2281 20.2744 8.33097 20.9624 7.61432C21.6503 6.89767 22.5275 6.3909 23.492 6.1529C24.4565 5.9149 25.4688 5.95542 26.4112 6.26976C27.3535 6.58411 28.1874 7.15936 28.8159 7.92872C29.4443 8.69807 29.8416 9.62994 29.9616 10.6161C30.0815 11.6022 29.9192 12.6022 29.4935 13.4997C29.0678 14.3973 28.3962 15.1557 27.5566 15.6868C26.7171 16.2179 25.7441 16.4999 24.7506 16.5H1.50004C1.1022 16.5 0.720663 16.342 0.439351 16.0607C0.158039 15.7794 0 15.3978 0 15C0 14.6022 0.158039 14.2206 0.439351 13.9393C0.720663 13.658 1.1022 13.5 1.50004 13.5H24.7506C25.3474 13.5 25.9197 13.2629 26.3417 12.841C26.7636 12.419 27.0007 11.8467 27.0007 11.25C27.0007 10.6533 26.7636 10.081 26.3417 9.65901C25.9197 9.23705 25.3474 9 24.7506 9ZM16.5454 25.2015C16.6308 25.6185 16.8328 26.0027 17.1278 26.3095C17.4228 26.6163 17.7988 26.8331 18.2121 26.9348C18.6254 27.0365 19.0591 27.0189 19.4628 26.884C19.8665 26.7491 20.2237 26.5025 20.4928 26.1727C20.762 25.843 20.9321 25.4437 20.9834 25.0211C21.0347 24.5986 20.965 24.1702 20.7826 23.7856C20.6002 23.4011 20.3124 23.0761 19.9527 22.8486C19.593 22.621 19.1761 22.5001 18.7505 22.5H9.00023C8.60239 22.5 8.22085 22.342 7.93954 22.0607C7.65823 21.7794 7.50019 21.3978 7.50019 21C7.50019 20.6022 7.65823 20.2206 7.93954 19.9393C8.22085 19.658 8.60239 19.5 9.00023 19.5H18.7505C19.7439 19.5001 20.7169 19.7821 21.5565 20.3132C22.396 20.8443 23.0677 21.6027 23.4934 22.5003C23.9191 23.3978 24.0814 24.3978 23.9614 25.3839C23.8415 26.3701 23.4442 27.3019 22.8157 28.0713C22.1872 28.8406 21.3534 29.4159 20.411 29.7302C19.4686 30.0446 18.4564 30.0851 17.4919 29.8471C16.5274 29.6091 15.6502 29.1023 14.9622 28.3857C14.2743 27.669 13.8037 26.7719 13.6053 25.7985C13.5262 25.4086 13.6051 25.0033 13.8248 24.6716C14.0445 24.34 14.387 24.1092 14.7769 24.03C15.1668 23.9508 15.5721 24.0298 15.9038 24.2495C16.2354 24.4692 16.4662 24.8116 16.5454 25.2015Z" fill="#254154"/>
</svg>
